<svg width="full" height="full" viewBox="0 0 24 26" fill="none" xmlns="http://www.w3.org/2000/svg">
<path d="M6.16667 17.6667C3.58934 17.6667 1.5 15.5773 1.5 13C1.5 10.7751 3.057 8.91387 5.14083 8.44644C5.04864 8.03461 5 7.60631 5 7.16667C5 3.94501 7.61168 1.33333 10.8333 1.33333C13.6558 1.33333 16.0102 3.33796 16.5502 6.00114C16.589 6.00039 16.6277 6 16.6667 6C19.8883 6 22.5 8.61168 22.5 11.8333C22.5 14.6555 20.4959 17.0095 17.8333 17.55M8.5 21.1667L12 24.6667M12 24.6667L15.5 21.1667M12 24.6667V10.6667" stroke="#DC810B" stroke-width="1.16667" stroke-linecap="round" stroke-linejoin="round"/>
</svg>
