<svg width="24" height="24" viewBox="0 0 24 24" fill="none" xmlns="http://www.w3.org/2000/svg">
<path d="M21.9299 6.76L18.5599 20.29C18.4429 20.7793 18.1639 21.2146 17.768 21.5251C17.3722 21.8356 16.883 22.0029 16.3799 22H3.2399C1.7299 22 0.6499 20.52 1.0999 19.07L5.3099 5.55C5.45058 5.0915 5.73408 4.68994 6.11905 4.40391C6.50402 4.11789 6.97031 3.96235 7.4499 3.96H19.7499C20.6999 3.96 21.4899 4.54 21.8199 5.34C22.0099 5.77 22.0499 6.26 21.9299 6.76Z" stroke="#6F6D6D" stroke-width="1.5" stroke-miterlimit="10"/>
<path d="M16 22H20.78C22.07 22 23.08 20.91 22.99 19.62L22 6M9.67995 6.38L10.72 2.06M16.38 6.39L17.32 2.05M7.69995 12H15.7M6.69995 16H14.7" stroke="#6F6D6D" stroke-width="1.5" stroke-miterlimit="10" stroke-linecap="round" stroke-linejoin="round"/>
</svg>
