<svg width="full" height="full" viewBox="0 0 24 24" fill="none" xmlns="http://www.w3.org/2000/svg">
<path d="M8.13118 13.5655C8.36719 13.0944 8.5 12.5628 8.5 12C8.5 11.4372 8.36719 10.9055 8.13118 10.4344M8.13118 13.5655C7.55656 14.7126 6.37024 15.5 5 15.5C3.06701 15.5 1.5 13.933 1.5 12C1.5 10.0669 3.06701 8.5 5 8.5C6.37024 8.5 7.55656 9.28741 8.13118 10.4344M8.13118 13.5655L15.8688 17.4344M8.13118 10.4344L15.8688 6.56558M15.8688 6.56558C16.4435 7.71259 17.6297 8.5 19 8.5C20.933 8.5 22.5 6.93299 22.5 5C22.5 3.06701 20.933 1.5 19 1.5C17.0669 1.5 15.5 3.06701 15.5 5C15.5 5.56276 15.6328 6.09451 15.8688 6.56558ZM15.8688 17.4344C15.6328 17.9055 15.5 18.4372 15.5 19C15.5 20.933 17.0669 22.5 19 22.5C20.933 22.5 22.5 20.933 22.5 19C22.5 17.0669 20.933 15.5 19 15.5C17.6297 15.5 16.4435 16.2874 15.8688 17.4344Z" stroke="#007DDD" stroke-width="1.16667" stroke-linecap="round" stroke-linejoin="round"/>
</svg>
